<svg width="434" height="390" viewBox="0 0 434 390" fill="none" xmlns="http://www.w3.org/2000/svg">
<path opacity="0.1" d="M44.2904 73.7355C48.3276 49.6466 69.1778 32.0001 93.6026 32.0001H383.285C410.899 32.0001 433.285 54.3859 433.285 82.0001V340C433.285 367.614 410.899 390 383.285 390H50.3624C19.4471 390 -4.05989 362.226 1.05018 331.736L44.2904 73.7355Z" fill="#68C9BA"/>
<path d="M401.014 126.03C426.738 155.207 396.363 183.381 342.903 184.141C236.616 177.137 212.631 83.0074 220.664 61.9028C228.697 40.7982 252.615 40.2221 288.054 83.2151C323.493 126.208 368.858 89.5572 401.014 126.03Z" stroke="white" stroke-width="1.5"/>
<ellipse cx="296.634" cy="91.1502" rx="16.8481" ry="9.95569" transform="rotate(20.7184 296.634 91.1502)" stroke="white" stroke-width="1.5"/>
</svg>
