<?xml version="1.0" standalone="no"?>
<!DOCTYPE svg PUBLIC "-//W3C//DTD SVG 20010904//EN"
 "http://www.w3.org/TR/2001/REC-SVG-20010904/DTD/svg10.dtd">
<svg version="1.0" xmlns="http://www.w3.org/2000/svg"
 width="980.000000pt" height="980.000000pt" viewBox="0 0 980.000000 980.000000"
 preserveAspectRatio="xMidYMid meet">

<g transform="translate(0.000000,980.000000) scale(0.100000,-0.100000)"
fill="#000000" stroke="none">
<path d="M2930 9790 c-162 -13 -444 -78 -671 -156 -476 -163 -868 -407 -1248
-779 -281 -275 -468 -520 -643 -845 -163 -303 -316 -771 -348 -1065 -28 -262
-22 -840 11 -1059 16 -106 73 -324 122 -471 377 -1114 1263 -1933 2402 -2219
244 -61 489 -81 925 -73 213 4 333 10 398 21 427 74 907 257 1257 481 64 41
120 75 124 75 3 0 202 -196 441 -435 l435 -435 6 -158 c9 -238 67 -426 173
-553 141 -171 1433 -1470 1801 -1811 214 -199 277 -236 468 -280 72 -17 127
-21 252 -22 189 -1 233 9 400 89 210 101 369 260 470 470 79 165 90 211 89
395 -1 226 -39 387 -121 512 -69 104 -280 324 -998 1044 -859 860 -998 990
-1110 1044 -136 66 -245 91 -433 98 l-162 7 -437 437 c-380 380 -436 440 -427
455 305 474 492 953 556 1423 21 152 18 831 -4 985 -67 467 -296 1030 -582
1434 -318 447 -742 813 -1222 1054 -306 153 -709 287 -954 317 -229 27 -739
38 -970 20z m687 -935 c394 -51 800 -219 1132 -468 120 -90 321 -284 416 -402
249 -310 414 -675 486 -1080 21 -115 24 -161 24 -400 0 -238 -3 -285 -23 -398
-93 -516 -308 -933 -667 -1293 -355 -356 -777 -574 -1290 -665 -151 -27 -492
-37 -646 -19 -891 102 -1619 657 -1954 1490 -114 283 -165 557 -165 890 0 402
72 706 251 1060 122 242 264 434 466 630 298 291 621 479 1005 584 111 30 312
68 418 79 104 11 440 6 547 -8z"/>
</g>
</svg>
