<?xml version="1.0" standalone="no"?>
<!DOCTYPE svg PUBLIC "-//W3C//DTD SVG 20010904//EN"
 "http://www.w3.org/TR/2001/REC-SVG-20010904/DTD/svg10.dtd">
<svg version="1.0" xmlns="http://www.w3.org/2000/svg"
 width="192.000000pt" height="153.000000pt" viewBox="0 0 192.000000 153.000000"
 preserveAspectRatio="xMidYMid meet">

<g transform="translate(0.000000,153.000000) scale(0.100000,-0.100000)"
fill="#000000" stroke="none">
<path d="M898 1138 c11 -18 42 -71 70 -118 103 -178 124 -211 130 -206 3 3 31
50 63 104 35 59 54 101 48 106 -5 6 -9 18 -9 28 0 48 -40 88 -54 53 -9 -24
-33 -17 -57 18 -36 51 -69 64 -69 27 0 -14 -7 -20 -21 -20 -11 0 -32 9 -46 20
-14 11 -37 20 -50 20 l-25 0 20 -32z"/>
<path d="M764 1098 c1 -32 0 -33 -46 -38 -57 -7 -82 -26 -55 -41 29 -17 19
-36 -30 -60 -88 -45 -74 -49 157 -49 l211 0 -12 23 c-7 12 -34 59 -60 103 -44
75 -51 82 -86 88 -74 12 -81 9 -79 -26z"/>
<path d="M1220 968 c-24 -40 -71 -120 -105 -178 l-62 -105 117 -3 117 -3 37
33 c40 36 51 80 16 71 -28 -7 -35 19 -16 56 9 16 16 41 16 55 0 21 -4 24 -27
23 -27 -2 -28 0 -29 51 -1 84 -16 84 -64 0z"/>
<path d="M593 846 c-32 -31 -46 -80 -20 -71 6 3 18 1 26 -4 12 -8 11 -17 -6
-57 -25 -56 -21 -73 15 -71 26 2 27 0 27 -50 0 -97 15 -86 115 84 51 87 99
168 107 181 l13 22 -122 -1 -123 -2 -32 -31z"/>
<path d="M763 649 c-64 -109 -63 -103 -32 -186 10 -26 34 -30 43 -8 10 26 35
16 61 -25 28 -44 65 -55 65 -20 0 26 29 26 62 1 23 -19 41 -25 65 -22 9 1
-170 324 -197 354 -4 5 -34 -38 -67 -94z"/>
<path d="M920 646 c0 -2 26 -48 58 -102 56 -95 58 -98 106 -110 61 -16 78 -10
70 23 -8 31 8 43 56 43 48 0 65 17 43 42 -18 21 -6 43 30 54 25 7 57 33 57 46
0 4 -94 8 -210 8 -116 0 -210 -2 -210 -4z"/>
</g>
</svg>
