<?xml version="1.0" standalone="no"?>
<!DOCTYPE svg PUBLIC "-//W3C//DTD SVG 20010904//EN"
 "http://www.w3.org/TR/2001/REC-SVG-20010904/DTD/svg10.dtd">
<svg version="1.0" xmlns="http://www.w3.org/2000/svg"
 width="110.000000pt" height="111.000000pt" viewBox="0 0 110.000000 111.000000"
 preserveAspectRatio="xMidYMid meet">

<g transform="translate(0.000000,111.000000) scale(0.100000,-0.100000)"
fill="#000000" stroke="none">
<path d="M450 1076 c0 -10 260 -448 275 -465 15 -16 34 11 115 162 47 87 49
95 39 132 -25 97 -44 118 -75 84 -9 -10 -21 -19 -26 -19 -5 0 -33 26 -64 57
-60 62 -56 62 -90 6 -11 -17 -14 -17 -65 9 -56 29 -109 45 -109 34z"/>
<path d="M296 1004 c-3 -9 -6 -26 -6 -40 0 -18 -7 -25 -27 -29 -116 -25 -128
-32 -97 -66 23 -26 13 -42 -49 -77 -31 -17 -58 -36 -61 -41 -11 -18 55 -22
306 -19 l247 3 -78 130 c-66 110 -83 132 -112 142 -51 18 -116 16 -123 -3z"/>
<path d="M947 872 c-9 -9 -72 -112 -140 -227 l-124 -210 61 -6 c34 -4 104 -7
157 -8 l96 -1 47 50 c56 59 61 90 15 90 -30 0 -31 2 -26 33 3 17 11 50 18 73
16 53 8 74 -31 74 -29 0 -30 2 -30 44 0 53 -10 106 -20 106 -4 0 -14 -8 -23
-18z"/>
<path d="M140 683 c-38 -5 -83 -41 -106 -85 -20 -38 -18 -48 11 -48 36 0 41
-24 21 -85 -24 -69 -19 -89 22 -93 32 -3 32 -3 33 -60 0 -31 4 -66 8 -77 7
-19 9 -18 32 7 23 24 269 429 269 442 0 7 -234 5 -290 -1z"/>
<path d="M324 430 c-56 -86 -104 -177 -104 -196 0 -24 31 -108 46 -123 12 -13
17 -12 37 7 13 12 28 22 34 22 6 0 27 -20 47 -45 55 -66 72 -73 91 -35 18 34
36 34 86 -1 36 -25 79 -35 79 -18 0 30 -244 459 -261 459 -5 0 -30 -32 -55
-70z"/>
<path d="M503 373 c59 -107 133 -227 153 -246 26 -26 124 -55 144 -42 5 3 10
22 10 40 0 41 20 55 77 55 22 0 47 6 57 13 15 11 16 17 5 39 -16 36 -7 53 38
76 21 11 46 29 56 40 17 19 17 20 -5 26 -33 8 -540 7 -535 -1z"/>
</g>
</svg>
